<svg width="16" height="16" viewBox="0 0 16 16" fill="none" xmlns="http://www.w3.org/2000/svg">
<path d="M15.1999 1.06667H13.3332V0.266667C13.3332 0.1192 13.214 0 13.0665 0H11.1999C11.0524 0 10.9332 0.1192 10.9332 0.266667V1.06667H5.06654V0.266667C5.06654 0.1192 4.94734 0 4.79987 0H2.9332C2.78574 0 2.66654 0.1192 2.66654 0.266667V1.06667H0.79987C0.652403 1.06667 0.533203 1.18587 0.533203 1.33333V4.26667V15.7333C0.533203 15.8808 0.652403 16 0.79987 16H15.1999C15.3473 16 15.4665 15.8808 15.4665 15.7333V4.26667V1.33333C15.4665 1.18587 15.3473 1.06667 15.1999 1.06667ZM11.4665 0.533333H12.7999V1.33333V2.13333H11.4665V1.33333V0.533333ZM3.19987 0.533333H4.5332V1.33333V2.13333H3.19987V1.33333V0.533333ZM1.06654 1.6H2.66654V2.4C2.66654 2.54747 2.78574 2.66667 2.9332 2.66667H4.79987C4.94734 2.66667 5.06654 2.54747 5.06654 2.4V1.6H10.9332V2.4C10.9332 2.54747 11.0524 2.66667 11.1999 2.66667H13.0665C13.214 2.66667 13.3332 2.54747 13.3332 2.4V1.6H14.9332V4H1.06654V1.6ZM1.06654 15.4667V4.53333H14.9332V15.4667H1.06654Z" fill="white"/>
<path d="M10.1336 6.13281H8.26693H7.73359H5.86693H5.33359H2.93359V8.53281V9.06615V10.9328V11.4661V13.8661H5.33359H5.86693H7.73359H8.26693H10.1336H10.6669H13.0669V11.4661V10.9328V9.06615V8.53281V6.13281H10.6669H10.1336ZM8.26693 6.66615H10.1336V8.53281H8.26693V6.66615ZM10.1336 10.9328H8.26693V9.06615H10.1336V10.9328ZM5.86693 9.06615H7.73359V10.9328H5.86693V9.06615ZM5.86693 6.66615H7.73359V8.53281H5.86693V6.66615ZM3.46693 6.66615H5.33359V8.53281H3.46693V6.66615ZM3.46693 9.06615H5.33359V10.9328H3.46693V9.06615ZM5.33359 13.3328H3.46693V11.4661H5.33359V13.3328ZM7.73359 13.3328H5.86693V11.4661H7.73359V13.3328ZM10.1336 13.3328H8.26693V11.4661H10.1336V13.3328ZM12.5336 13.3328H10.6669V11.4661H12.5336V13.3328ZM12.5336 10.9328H10.6669V9.06615H12.5336V10.9328ZM12.5336 6.66615V8.53281H10.6669V6.66615H12.5336Z" fill="white"/>
</svg>
