<svg width="16" height="16" viewBox="0 0 16 16" fill="none" xmlns="http://www.w3.org/2000/svg">
<path d="M0.329548 2C0.150791 2.01685 -0.000771265 2.18409 2.95316e-06 2.36364V13.6364C2.19713e-05 13.8268 0.173245 14 0.363639 14H15.6364C15.8268 14 16 13.8268 16 13.6364V2.36364C16 2.17324 15.8268 2.00002 15.6364 2C10.5348 2 5.42873 2 0.329548 2ZM0.954548 2.72727H15.0455L8 8.44318L0.954548 2.72727ZM0.727276 3.48295L6.43182 8.10227L0.727276 12.6591V3.48295ZM15.2727 3.48295V12.6591L9.56818 8.10227L15.2727 3.48295ZM7.00568 8.56818L7.77273 9.1875C7.9005 9.28978 8.09951 9.28978 8.22727 9.1875L8.99432 8.56818L14.875 13.2727H1.125L7.00568 8.56818Z" fill="white"/>
</svg>
