<svg width="16" height="16" viewBox="0 0 16 16" fill="none" xmlns="http://www.w3.org/2000/svg">
<path d="M15.9588 5.27559C15.9889 5.20875 16.0029 5.13498 15.9995 5.06099C15.9968 5.00332 15.9768 4.8037 15.8231 4.65572C15.7215 4.55781 15.5876 4.50841 15.4481 4.51757C15.0985 4.54082 14.8417 4.47219 14.7231 4.32846C14.5904 4.16796 14.5979 3.87535 14.6327 3.63863L15.0132 2.79232C15.1064 2.61371 15.0997 2.36245 14.9202 2.17088C14.7833 2.02491 14.6119 1.98736 14.4738 2.00345H5.07538C4.28823 2.00345 3.45916 2.68792 3.1073 3.35943L0.191052 9.27913C0.190843 9.2798 0.190634 9.28047 0.190426 9.28092C0.0698715 9.5087 0 9.77069 0 10.0506V12.4352C0 13.2979 0.655123 14 1.46 14H11.6452C11.6788 14 11.7063 13.996 11.7363 13.9937C11.7543 13.9962 11.7724 14 11.7903 14C11.9098 14 12.0248 13.9439 12.1044 13.8455C12.1374 13.8093 12.1597 13.7684 12.1758 13.7262L15.9588 5.27559ZM3.84001 3.78683C4.08383 3.3212 4.67263 2.89738 5.07538 2.89738H14.0402L11.5282 8.4858H1.52507L3.84001 3.78683ZM9.42263 13.1059H1.46C1.11502 13.1059 0.834286 12.805 0.834286 12.4352V10.0506C0.834286 9.68082 1.11502 9.37994 1.46 9.37994H9.42284C8.9959 9.86748 8.73393 10.5229 8.73393 11.2429C8.73393 11.9629 8.99569 12.6183 9.42263 13.1059ZM9.56822 11.2429C9.56822 10.2336 10.3343 9.41258 11.276 9.41258C11.7618 9.41258 12.1238 9.40945 12.1931 9.06699L14.0732 4.88484C14.0821 4.89647 14.0894 4.90921 14.0988 4.92061C14.3105 5.17678 14.6063 5.3346 14.9817 5.39138L11.5411 13.0766C11.4575 13.0739 11.3701 13.073 11.276 13.073C10.3341 13.073 9.56822 12.2519 9.56822 11.2429Z" fill="white"/>
</svg>
